<svg xmlns="http://www.w3.org/2000/svg" width="512" height="512" viewBox="0 0 512 512">
  <circle cx="256" cy="256" r="256" fill="#3b82f6"/>
  <g transform="translate(106, 106) scale(1.2)">
    <path d="M256 80c0-8.84-7.16-16-16-16s-16 7.16-16 16 7.16 16 16 16 16-7.16 16-16zm-16 80c-8.84 0-16 7.16-16 16v96c0 8.84 7.16 16 16 16s16-7.16 16-16v-96c0-8.84-7.16-16-16-16zm-96-80c0-8.84-7.16-16-16-16s-16 7.16-16 16 7.16 16 16 16 16-7.16 16-16zm-16 80c-8.84 0-16 7.16-16 16v96c0 8.84 7.16 16 16 16s16-7.16 16-16v-96c0-8.84-7.16-16-16-16zm192 0c-8.84 0-16 7.16-16 16v96c0 8.84 7.16 16 16 16s16-7.16 16-16v-96c0-8.84-7.16-16-16-16zm-96 0c-8.84 0-16 7.16-16 16v96c0 8.84 7.16 16 16 16s16-7.16 16-16v-96c0-8.84-7.16-16-16-16zm-16-80c0-8.84-7.16-16-16-16s-16 7.16-16 16 7.16 16 16 16 16-7.16 16-16zm-96 80c-8.84 0-16 7.16-16 16v96c0 8.84 7.16 16 16 16s16-7.16 16-16v-96c0-8.84-7.16-16-16-16zm-16-80c0-8.84-7.16-16-16-16s-16 7.16-16 16 7.16 16 16 16 16-7.16 16-16zm192 0c0-8.84-7.16-16-16-16s-16 7.16-16 16 7.16 16 16 16 16-7.16 16-16z" fill="white"/>
  </g>
</svg>

